#!OML:ASF X:\für Bonn\!DataBase\2005_08_12_Daniel\c3d\Daniel.ASF
:FULLY-SPECIFIED
:DEGREES
155
root 4.43778 16.7911 -0.0538445 -742.838 -68.4474 728.312
lowerback 14.6468 -5.68342 -3.95044
upperback 8.04189 -8.46898 -5.0476
thorax 0.150831 -4.4413 -1.87008
lowerneck 15.2363 12.8315 0.182928
upperneck 23.7961 15.6414 -0.048332
head 5.00116 7.04704 -0.145212
rclavicle -6.34123e-014 3.33958e-014
rhumerus -47.7236 7.01158 -89.9382
rradius 37.9974
rwrist 18.7108
rhand -27.0768 19.8307
rfingers 7.12502
rthumb -0.494258 -10.1485
lclavicle -6.34123e-014 3.33958e-014
lhumerus -18.4964 13.2301 62.0031
lradius 130.205
lwrist 208.356
lhand -12.7014 17.1785
lfingers 7.12502
lthumb 13.381 46.7288
rfemur -14.6192 -6.53786 14.2687
rtibia 50.0367
rfoot -18.569 -6.4941
rtoes -6.48978
lfemur -9.40285 -11.582 -19.3282
ltibia 74.9225
lfoot -1.33346 -4.68058
ltoes -18.5942
156
root 4.48293 16.7923 -0.0427532 -741.834 -67.9393 727.704
lowerback 14.3261 -6.07088 -4.37593
upperback 7.82437 -8.9957 -4.82003
thorax 0.189323 -4.70929 -1.35911
lowerneck 15.4161 12.9615 0.263225
upperneck 23.3723 15.8827 -0.465268
head 4.88468 7.16848 -0.305327
rclavicle 7.11649e-014 -3.4191e-014
rhumerus -47.1932 6.80958 -89.2658
rradius 38.2705
rwrist 18.4213
rhand -27.2794 19.2192
rfingers 7.12502
rthumb -0.689986 -10.7595
lclavicle 7.11649e-014 -3.4191e-014
lhumerus -19.3206 13.5327 61.7188
lradius 130.371
lwrist 208.324
lhand -12.9533 17.1562
lfingers 7.12502
lthumb 13.1382 46.7223
rfemur -15.2255 -6.99637 14.2182
rtibia 50.1069
rfoot -18.2291 -6.62438
rtoes -6.40495
lfemur -8.03213 -11.6802 -18.5643
ltibia 73.1414
lfoot -3.57819 -4.40326
ltoes -18.0716
157
root 4.52574 16.8024 -0.0317831 -740.941 -67.3376 727.178
lowerback 14.0369 -6.48157 -4.84743
upperback 7.60301 -9.56067 -4.60992
thorax 0.225737 -4.99684 -0.84205
lowerneck 15.6844 13.0847 0.366104
upperneck 22.898 16.1112 -0.895232
head 4.74384 7.28735 -0.479312
rclavicle 2.49475e-014 3.33958e-014
rhumerus -46.6017 6.47481 -88.5913
rradius 38.484
rwrist 18.2425
rhand -27.3702 18.7464
rfingers 7.12502
rthumb -0.77764 -11.232
lclavicle 2.49475e-014 3.33958e-014
lhumerus -20.2737 13.7873 61.4005
lradius 130.541
lwrist 208.271
lhand -13.0902 17.1133
lfingers 7.12502
lthumb 13.0063 46.6879
rfemur -15.7167 -7.42533 14.1264
rtibia 50.1286
rfoot -17.9603 -6.8263
rtoes -6.36938
lfemur -6.70372 -11.8116 -17.8271
ltibia 71.2988
lfoot -5.66938 -4.23027
ltoes -17.9443
158
root 4.56896 16.8155 -0.0196009 -740.083 -66.6963 726.647
lowerback 13.7824 -6.89865 -5.28248
upperback 7.39598 -10.1322 -4.41956
thorax 0.26371 -5.28658 -0.369547
lowerneck 15.9484 13.1985 0.498739
upperneck 22.4428 16.3227 -1.2849
head 4.60969 7.40254 -0.644321
rclavicle -1.00386e-014 1.35174e-014
rhumerus -45.9985 5.97833 -87.9354
rradius 38.7466
rwrist 18.1049
rhand -27.3261 18.3888
rfingers 7.12502
rthumb -0.735007 -11.5897
lclavicle -1.00386e-014 1.35174e-014
lhumerus -21.2682 13.9843 61.1017
lradius 130.657
lwrist 208.286
lhand -13.2404 17.0971
lfingers 7.12502
lthumb 12.8615 46.6808
rfemur -16.1398 -7.87144 14.0296
rtibia 50.1173
rfoot -17.6706 -7.06205
rtoes -6.33696
lfemur -5.42059 -11.9624 -17.0618
ltibia 69.4022
lfoot -7.49829 -4.21176
ltoes -17.7631
159
root 4.61812 16.8252 -0.00658008 -739.397 -66.0677 726.32
lowerback 13.5531 -7.29308 -5.78146
upperback 7.16904 -10.6835 -4.23153
thorax 0.291141 -5.56652 0.127758
lowerneck 16.2488 13.2987 0.64788
upperneck 21.9376 16.5185 -1.69735
head 4.4587 7.51403 -0.821967
rclavicle -3.69739e-014 -5.32743e-014
rhumerus -45.3486 5.34585 -87.2518
rradius 38.9918
rwrist 18.0174
rhand -27.2413 18.2545
rfingers 7.12502
rthumb -0.653182 -11.7243
lclavicle -3.69739e-014 -5.32743e-014
lhumerus -22.2847 14.1583 60.8418
lradius 130.737
lwrist 208.272
lhand -13.248 17.0966
lfingers 7.12502
lthumb 12.8541 46.6808
rfemur -16.6246 -8.29362 13.8581
rtibia 50.1284
rfoot -17.3927 -7.28246
rtoes -6.24769
lfemur -4.28298 -12.0638 -16.3305
ltibia 67.4925
lfoot -9.06755 -4.42319
ltoes -17.3719
160
root 4.67414 16.8275 0.00637958 -738.848 -65.4221 726.087
lowerback 13.4017 -7.6857 -6.26421
upperback 6.97033 -11.239 -4.11171
thorax 0.303921 -5.84771 0.548925
lowerneck 16.5531 13.3843 0.878297
upperneck 21.4024 16.7018 -2.08701
head 4.30303 7.62885 -1.00487
rclavicle -1.39348e-013 1.27222e-014
rhumerus -44.6871 4.49406 -86.6573
rradius 39.2593
rwrist 18.0458
rhand -27.1201 18.2988
rfingers 7.12502
rthumb -0.53607 -11.6803
lclavicle -1.39348e-013 1.27222e-014
lhumerus -23.2237 14.2731 60.5627
lradius 130.73
lwrist 208.257
lhand -13.1685 17.0597
lfingers 7.12502
lthumb 12.9308 46.6391
rfemur -17.1178 -8.74991 13.6298
rtibia 50.1972
rfoot -17.0917 -7.4843
rtoes -6.22709
lfemur -3.2497 -12.1234 -15.6149
ltibia 65.5963
lfoot -10.3847 -4.88661
ltoes -17.1269
161
root 4.73602 16.8242 0.0204725 -738.363 -64.7671 725.912
lowerback 13.2744 -8.06059 -6.79744
upperback 6.79036 -11.7772 -3.94636
thorax 0.354815 -6.12342 1.03321
lowerneck 16.8111 13.4675 1.01855
upperneck 20.8663 16.8702 -2.46217
head 4.14586 7.732 -1.16797
rclavicle 1.57239e-013 -7.15625e-015
rhumerus -43.9973 3.6038 -86.0292
rradius 39.5663
rwrist 18.0792
rhand -27.0577 18.4501
rfingers 7.12502
rthumb -0.475864 -11.5291
lclavicle 1.57239e-013 -7.15625e-015
lhumerus -24.093 14.425 60.4194
lradius 130.66
lwrist 208.247
lhand -13.0754 16.9677
lfingers 7.12502
lthumb 13.0205 46.5414
rfemur -17.6644 -9.23962 13.3642
rtibia 50.3398
rfoot -16.8089 -7.66044
rtoes -6.26386
lfemur -2.3529 -12.1404 -14.9043
ltibia 63.73
lfoot -11.5429 -5.5272
ltoes -17.1853
162
root 4.80291 16.8168 0.0372534 -737.945 -64.1298 725.773
lowerback 13.1608 -8.42296 -7.305
upperback 6.65203 -12.2972 -3.79894
thorax 0.444857 -6.39206 1.47438
lowerneck 17.0612 13.5381 1.15907
upperneck 20.2667 17.0226 -2.83413
head 3.96993 7.83176 -1.33137
rclavicle 9.8796e-014 -5.32743e-014
rhumerus -43.303 2.71675 -85.4792
rradius 39.9136
rwrist 18.0534
rhand -27.1014 18.7141
rfingers 7.12502
rthumb -0.518029 -11.265
lclavicle 9.8796e-014 -5.32743e-014
lhumerus -24.8782 14.5579 60.3361
lradius 130.536
lwrist 208.111
lhand -12.8963 16.9542
lfingers 7.12502
lthumb 13.1932 46.5167
rfemur -18.2154 -9.75222 13.0644
rtibia 50.5284
rfoot -16.5364 -7.78787
rtoes -6.27622
lfemur -1.53648 -12.1198 -14.2162
ltibia 61.8871
lfoot -12.5602 -6.37083
ltoes -17.4352
163
root 4.87484 16.8069 0.0578064 -737.556 -63.497 725.632
lowerback 13.0936 -8.7665 -7.7558
upperback 6.51124 -12.7908 -3.66264
thorax 0.501912 -6.64495 1.87541
lowerneck 17.3088 13.5764 1.30933
upperneck 19.6833 17.1297 -3.18511
head 3.79782 7.91103 -1.48903
rclavicle -3.62782e-014 2.06736e-014
rhumerus -42.7259 1.84579 -85.0063
rradius 40.3731
rwrist 17.9465
rhand -27.2487 19.0044
rfingers 7.12502
rthumb -0.660259 -10.9743
lclavicle -3.62782e-014 2.06736e-014
lhumerus -25.5932 14.607 60.3376
lradius 130.344
lwrist 207.941
lhand -12.7165 16.929
lfingers 7.12502
lthumb 13.3664 46.4803
rfemur -18.7563 -10.2742 12.7444
rtibia 50.7508
rfoot -16.2578 -7.89511
rtoes -6.36074
lfemur -0.756243 -12.1122 -13.5616
ltibia 60.062
lfoot -13.5094 -7.42509
ltoes -17.7942
164
root 4.94845 16.7957 0.0832255 -737.187 -62.8498 725.472
lowerback 13.0246 -9.10853 -8.15335
upperback 6.3988 -13.276 -3.53252
thorax 0.585302 -6.89452 2.2335
lowerneck 17.5735 13.6001 1.44444
upperneck 19.0357 17.2166 -3.55805
head 3.60395 7.98283 -1.65402
rclavicle 4.73108e-014 7.15625e-015
rhumerus -42.1922 0.988997 -84.5943
rradius 40.9143
rwrist 17.8235
rhand -27.4528 19.2139
rfingers 7.12502
rthumb -0.857392 -10.7641
lclavicle 4.73108e-014 7.15625e-015
lhumerus -26.2338 14.6517 60.449
lradius 130.1
lwrist 207.7
lhand -12.5376 16.9896
lfingers 7.12502
lthumb 13.5389 46.5294
rfemur -19.2527 -10.8615 12.396
rtibia 50.9863
rfoot -15.9697 -7.95955
rtoes -6.41209
lfemur 0.00886374 -12.1653 -12.9613
ltibia 58.2599
lfoot -14.4451 -8.69602
ltoes -18.2606
165
root 5.03098 16.7801 0.114237 -736.894 -62.3138 725.376
lowerback 12.995 -9.39876 -8.45482
upperback 6.28694 -13.6876 -3.43445
thorax 0.618293 -7.10309 2.51101
lowerneck 17.988 13.5888 1.536
upperneck 17.9606 17.2106 -3.81847
head 3.65264 8.03055 -1.89729
rclavicle -4.37326e-014 1.27222e-014
rhumerus -41.7386 0.148709 -84.2777
rradius 41.5388
rwrist 17.6274
rhand -27.7443 19.4168
rfingers 7.12502
rthumb -1.13892 -10.5599
lclavicle -4.37326e-014 1.27222e-014
lhumerus -26.7527 14.6288 60.6425
lradius 129.807
lwrist 207.419
lhand -12.4323 17.0597
lfingers 7.12502
lthumb 13.6404 46.5928
rfemur -19.789 -11.4323 12.0211
rtibia 51.2414
rfoot -15.6516 -7.93839
rtoes -6.53506
lfemur 0.74313 -12.191 -12.4623
ltibia 56.4986
lfoot -15.423 -10.1313
ltoes -18.8177
166
root 5.12257 16.7612 0.149424 -736.787 -61.9457 725.424
lowerback 13.0611 -9.62149 -8.738
upperback 6.17717 -14.0202 -3.34973
thorax 0.591627 -7.26977 2.77742
lowerneck 18.0958 13.5752 1.62954
upperneck 17.3798 17.2437 -4.13318
head 3.46535 8.07483 -2.03987
rclavicle 4.99943e-014 5.56597e-015
rhumerus -41.3334 -0.520589 -84.0532
rradius 42.2653
rwrist 17.2604
rhand -28.048 19.5161
rfingers 7.12502
rthumb -1.43227 -10.4588
lclavicle 4.99943e-014 5.56597e-015
lhumerus -27.2079 14.6251 60.9016
lradius 129.473
lwrist 207.127
lhand -12.4528 17.1373
lfingers 7.12502
lthumb 13.6206 46.6717
rfemur -20.3366 -11.8895 11.5994
rtibia 51.5031
rfoot -15.2844 -7.86953
rtoes -6.6691
lfemur 1.53814 -12.1902 -12.1283
ltibia 54.7814
lfoot -16.4371 -11.5947
ltoes -19.1544
167
root 5.21624 16.7409 0.187101 -736.732 -61.5987 725.51
lowerback 13.1267 -9.81192 -8.99744
upperback 6.07302 -14.3085 -3.28523
thorax 0.559023 -7.41332 3.00767
lowerneck 18.2104 13.5231 1.74174
upperneck 16.7678 17.2285 -4.45126
head 3.26665 8.09858 -2.18766
rclavicle 7.28049e-014 -2.46493e-014
rhumerus -40.9856 -1.35844 -83.8372
rradius 42.9957
rwrist 17.0064
rhand -28.3241 19.6308
rfingers 7.12502
rthumb -1.69893 -10.3422
lclavicle 7.28049e-014 -2.46493e-014
lhumerus -27.552 14.5533 61.2483
lradius 129.082
lwrist 206.747
lhand -12.4722 17.1824
lfingers 7.12502
lthumb 13.6019 46.718
rfemur -20.8739 -12.3373 11.1556
rtibia 51.7584
rfoot -14.9381 -7.78243
rtoes -6.88377
lfemur 2.31853 -12.306 -11.9285
ltibia 53.1107
lfoot -17.3793 -13.0491
ltoes -18.96
